<svg xmlns="http://www.w3.org/2000/svg" role="img" viewBox="-19.96 -14.96 1037.92 190.92"><title>ApacheCassandraSummit_2022_Logo-White.svg</title><defs><clipPath id="clip-path"><path d="M132.56364 5.97719c-10.19638 1.2341-19.64548 4.80335-28.77856 9.27217C86.407 23.75134 70.28854 34.35881 54.18242 44.97418Q27.88956 62.30605 1.68032 79.76727C1.09761 80.15366.37056 80.394 0 81.16066q12.87047 8.49884 25.73391 16.98988c19.95883 13.10634 39.65009 26.62818 60.25766 38.72762 12.14253 7.12971 24.50955 13.80437 38.25318 17.46077 2.22783.59327 4.47591 1.12052 6.71426 1.67769h19.28992c.21914-.35823.59058-.37322.94887-.43043a86.00708 86.00708 0 0 0 14.27543-3.92872c-.04137-3.8439-.74043-7.50439-.78088-11.35-.21479.0845-.43221.16192-.647.2438-1.7261.654-3.46536 1.26133-5.22315 1.7983-.794.242-1.59319.46562-2.39507.68041-1.19445.31864-2.39593.61-3.60891.859q-2.02794.41727-4.09119.69008c-.9269.12147-1.16806.63378-1.45941 1.31946a6.92957 6.92957 0 0 1-6.79527 4.5718 7.07019 7.07019 0 0 1-6.71163-4.431 2.3182 2.3182 0 0 0-2.05263-1.51131c-21.47457-3.47948-37.49885-14.70661-47.41973-34.02462-7.01178-13.65126-8.3955-28.1325-4.68011-43.04423a2.61131 2.61131 0 0 0-.6452-2.873 6.82591 6.82591 0 0 1-1.52893-7.66667 7.11916 7.11916 0 0 1 6.48988-4.76365 3.2484 3.2484 0 0 0 2.829-1.85284c13.65827-20.81444 32.87686-31.09973 57.92862-30.13764 2.88707.11089 5.7548.74907 8.63225 1.14249a63.18921 63.18921 0 0 1 32.84249 18.4176 56.81414 56.81414 0 0 1 8.02582 10.5934 3.11606 3.11606 0 0 0 2.81841 1.86164 7.17415 7.17415 0 0 1 6.49689 4.76456 6.8357 6.8357 0 0 1-1.6469 7.8163 2.26668 2.26668 0 0 0-.57748 2.50865c4.52431 18.42287 1.3626 35.50429-9.44381 51.05324a61.28053 61.28053 0 0 1-25.40644 21.07318c-.59328.26845-1.154.60648-1.72964.911q.05938 5.76841.12147 11.53432c.419-.12325.84765-.22183 1.25606-.37322 11.522-4.28578 22.11622-10.39006 32.56263-16.7355 21.95076-13.33434 43.07674-27.9327 64.48794-42.09182 5.76453-3.81219 11.50789-7.65609 17.44321-11.60561-1.00083-.68482-1.8256-1.26928-2.67057-1.82554-18.81456-12.40577-37.586-24.87484-56.46131-37.18993-14.53233-9.48163-29.12978-18.87968-44.78172-26.48473-7.47655-3.63352-15.10358-6.90794-23.34768-8.46239-1.3467-.32476-2.76125-.31423-4.08769-.58355a48.13163 48.13163 0 0 0-9.64716-.94978 58.2516 58.2516 0 0 0-7.00475.43747" class="cls-1"/></clipPath><clipPath id="clip-path-2"><path d="M173.94248 49.421zM140.328 35.00312c1.16275 2.26479 1.48139 4.58857 2.20666 6.77766a1.23466 1.23466 0 0 0 .52639-.61267 1.23561 1.23561 0 0 1-.52639.61353c.79571 2.91791 1.595 5.84285 2.43466 8.92011a4755.45582 4755.45582 0 0 0 1.04923 3.84389c4.42218-5.46437 8.5592-10.57669 13.03682-16.1088-.815 7.01-1.56234 13.45581-2.34661 20.207 6.07344-2.99092 11.39346-6.58661 17.20994-9.25014.07747-.081.154-.162.23058-.24294.12147.235.05985.33008-.206.27023a9.02759 9.02759 0 0 1-1.3872 3.3642c-.21125.34587-.43039.6874-.647 1.03069-.28871.45773-.57038.91809-.82036 1.39339-1.68822 3.21543-3.56045 6.33577-5.32706 9.51161-.26845.48319-.85028 1.0351-.47089 1.5747.36441.51667 1.09323.21125 1.64509.14871 5.85258-.66188 11.70247-1.352 18.14387-2.10367-5.51632 4.35175-10.61715 8.37433-16.11144 12.7076 6.7178 1.98048 12.95849 3.821 19.796 5.83759-6.84014 1.9259-13.12573 3.69428-19.80126 5.57354 5.276 4.15721 10.317 8.12962 15.35974 12.102q-.07922.239-.15849.47621c-6.37182-.73059-12.7437-1.4629-19.39462-2.22605 3.14941 5.776 6.18879 11.35472 9.22908 16.93352.08451.1074.26314.26583.2359.31424-.162.30106-.34152.1162-.51054-.01934l-.00091.00085q-7.27755-3.961-14.55516-7.9166a4.96187 4.96187 0 0 0-2.41447-.97793c.75085 6.5743 1.49374 13.08087 2.29385 20.08121-3.85093-4.65282-7.3929-8.93242-10.93486-13.212-.31778-.33711-.63556-.67423-.98761-1.04745-.35119-.37408-.73763-.78426-1.19273-1.26751-1.81232 6.32519-3.534 12.33352-5.2557 18.341l-.44806.037c-1.756-6.10777-3.51291-12.2156-5.37723-18.70191-3.31311 4.09742-6.40793 7.96066-9.54767 11.78785a18.09193 18.09193 0 0 1-3.08955 3.54728c.00177.01848.00091.03783.00177.05631-.02375.01144-.04755.022-.07129.03255a.46584.46584 0 0 1-.05985.08892c-.01762.0167-.07484-.00527-.11357-.01059a26.25378 26.25378 0 0 0 .17342-.07833c.01407-.02374.03078-.04486.04577-.06774.00881-.00618.01494-.015.02375-.02112a25.524 25.524 0 0 1 .12147-4.28051q.08058-.80013.18486-1.59667c.25879-1.96469.59059-3.92228.74375-5.89658.19631-2.51563.55105-5.01986.85733-7.72739a8.36438 8.36438 0 0 0-3.23477 1.47966c-4.05955 2.2498-8.07684 4.57358-12.13549 6.82338-.57832.32127-1.09675.96472-1.90656.70507l-.00086-.00091-.00881.01676-.03344-.02643a.23867.23867 0 0 0 .04225.00967c2.27975-4.26547 4.55861-8.53276 6.9-12.91535q1.17245-2.19573 2.36692-4.43277a81854.16564 81854.16564 0 0 1-19.51789 2.21639q-.07523-.21388-.15139-.42775c5.0533-3.98385 10.10749-7.9677 15.47943-12.20329-6.82165-1.89248-13.271-3.682-20.03278-5.55769 6.77677-1.98049 13.17946-3.85271 20.01519-5.85076-5.44676-4.29367-10.59426-8.35322-16.15193-12.73494a414121.3173 414121.3173 0 0 1 20.45881 2.34134c-3.37034-6.07258-6.52149-11.75169-9.99394-18.00827 6.2143 3.454 11.91017 6.621 17.94052 9.97369-.78254-6.8058-1.51926-13.21991-2.33522-20.30476 4.5111 5.563 8.66128 10.6814 13.03242 16.07271 1.87222-6.628 3.645-12.90745 5.47409-19.38318M113.55809 30.176q-1.86165.95068-3.64673 2.043a63.43759 63.43759 0 0 0-19.3691 19.08742 3.21291 3.21291 0 0 0-.029 4.292A7.31049 7.31049 0 0 1 84.98989 66.888a1.76364 1.76364 0 0 0-1.83527 1.65658c-4.32623 19.597-.514 37.30168 12.62492 52.67286a57.40275 57.40275 0 0 0 35.86252 19.78632c1.06685.16633 1.68473.07215 2.19172-1.073a6.75627 6.75627 0 0 1 5.401-3.9724c3.41517-.55186 5.8543 1.13287 7.91219 3.59923.13206 1.425.88639 1.822 2.24282 1.46291 1.12315-.29667 2.285-.44806 3.4293-.669 32.082-6.19228 53.36031-40.13245 44.98947-71.70748-.29838-1.12664-.65752-1.64776-1.95055-1.79738a7.36094 7.36094 0 0 1-5.19678-11.80719 2.38975 2.38975 0 0 0 .03783-3.23569 59.78449 59.78449 0 0 0-13.78326-15.3773q-1.855-1.43652-3.76643-2.71988-1.91182-1.28334-3.88263-2.41-.9863-.56249-1.9866-1.08533-1.37584-.71817-2.78151-1.35814A53.98421 53.98421 0 0 0 143.297 23.974q-1.09589-.0303-2.17765-.03078a59.74708 59.74708 0 0 0-27.56126 6.23278" class="cls-1"/></clipPath><clipPath id="clip-path-3"><path d="M147.03349 70.7662c-4.67656.01053-4.67656.01053-4.6757 4.6.00086 5.39039.00086 5.39039 5.41774 5.401 5.75658.01231 5.75658.01231 4.80244-5.31561-.80189-4.47853-.83885-4.68628-4.92042-4.68628q-.297 0-.62406.00091" class="cls-1"/></clipPath><clipPath id="clip-path-4"><path d="M142.768 85.12425c-1.20943 1.05272-.25438 3.40991-.40841 5.19323-.01235.14435-.00177.29048-.00177.4357 0 4.06132 0 4.06132 4.086 4.06749 5.26365.0079 5.26365.0079 6.20286-5.158.889-4.88964.889-4.88964-3.95129-4.88169-.29135.00086-.58183.00086-.87318.00086-.00091-.02551-.00263-.051-.00354-.07655a16.46738 16.46738 0 0 1-1.69967-.04229c-.44188-.02638-.88376-.05281-1.3027-.05281a3.12513 3.12513 0 0 0-2.04828.51408" class="cls-1"/></clipPath><clipPath id="clip-path-5"><path d="M129.49788 71.13851c-1.4946 1.27105-1.1029 4.071-1.48315 6.20726-.61439 3.45574-.5669 3.46364 3.02353 3.46541q1.09581.00129 2.19172.00086c2.53679.00178 3.8606.00269 4.54983-.58532a1.3806 1.3806 0 0 0 .25879-.28957 1.86726 1.86726 0 0 0 .21387-.43221 4.262 4.262 0 0 0 .19717-.95414c.04051-.37762.06162-.81859.0722-1.33176.01053-.514.01053-1.10113.01053-1.77187a13.6537 13.6537 0 0 1 .01408-1.96377c.30811-2.10281-.31772-3.108-2.67234-2.785a11.11478 11.11478 0 0 1-2.54818-.06511c-.57834-.05808-1.15044-.11707-1.68913-.11707a3.1757 3.1757 0 0 0-2.13892.62229" class="cls-1"/></clipPath><clipPath id="clip-path-6"><path d="M133.35763 84.75012h-.21834c-5.58847.00354-5.58847.00354-4.8077 5.44589.6672 4.65459.6672 4.65459 5.34639 4.65636 4.85439.00349 4.85439.00349 4.85439-4.87813-.00086-5.10088-.00086-5.22412-4.81033-5.22412h-.36441" class="cls-1"/></clipPath><clipPath id="clip-path-7"><path d="M163.14843 70.72569c-2.04211.0361-4.08593.05281-6.12894.00881-1.00077-.022-1.27278.35737-1.07647 1.2983.29747 1.42067.48234 2.86423.7913 4.28137.316 1.45146-.58709 3.49533.70594 4.25058 1.139.66543 2.97775.139 4.50668.139.00086.03084.00086.06253.00086.09332 1.16716 0 2.3414-.07484 3.5006.02111 1.323.10826 1.65749-.44451 1.47263-1.6504a26.92467 26.92467 0 0 0-2.24894-7.48359 1.46833 1.46833 0 0 0-1.47526-.9594l-.0484.00086" class="cls-1"/></clipPath><clipPath id="clip-path-8"><path d="M164.99863 84.72814a21.544 21.544 0 0 1-3.05432.02466v.0132c-1.23758 0-2.47694.02643-3.71275-.00967-.85115-.02552-1.30888.17691-1.39951 1.16629-.23768 2.5975-.59419 5.1827-.91987 7.77139-.07747.62142-.11443 1.00872.75262 1.1628 6.6218 1.17419 8.24583.14081 9.817-6.393.11884-.49292.23591-.98761.34507-1.4823.294-1.33531.19626-2.30175-1.22-2.30175a4.29708 4.29708 0 0 0-.60826.0484" class="cls-1"/></clipPath><clipPath id="clip-path-9"><path d="M121.40431 70.74245c-5.19328.00172-5.19328.00172-6.599 4.93267-1.46027 5.12725-1.46027 5.12725 3.75235 5.12989h.21828c.35914.00091.71829-.007 1.07829-.01408a22.92367 22.92367 0 0 1 2.41086.0361c1.33972.11357 1.75431-.38815 1.76134-1.712a30.04956 30.04956 0 0 1 .48411-4.747c.59591-3.57366.63727-3.62556-2.92758-3.62556h-.17869" class="cls-1"/></clipPath><clipPath id="clip-path-10"><path d="M118.9811 84.75807c-5.77949.0044-5.77949.0044-4.086 5.58847.02114.06866.05636.13469.07747.20335 1.35551 4.29453 1.35551 4.32623 5.835 4.27868a11.08521 11.08521 0 0 1 1.33966.10562c1.12052.13383 2.2498.26674 2.80348-.448.57124-.73672-.30806-2.58343-.52462-3.93808-.06866-.43043-.06688-.87054-.12587-1.30269-.602-4.37469-.62051-4.48821-4.96173-4.48821-.11621 0-.23505.00086-.35737.00086" class="cls-1"/></clipPath><clipPath id="clip-path-11"><path d="M142.34017 99.93557c.05458 2.67589.01848 5.35257.01848 8.01787.228.03874.39347.12325.49909.0757 3.78491-1.71288 5.58671-5.11581 7.2644-8.59.43129-.89165-.39079-.88639-.96913-.889-.66628-.00263-1.33439.00263-2.00159.0079-1.14953.00881-2.3.01848-3.44779-.01757-.0396-.00177-.07833-.00177-.11621-.00177-.962 0-1.26659.41195-1.24725 1.39687" class="cls-1"/></clipPath><clipPath id="clip-path-12"><path d="M142.35779 60.73792c0 6.54439 0 6.54439 6.59719 6.18438.14613-.008.29312-.00967.43834-.0044.85206.03169 1.03515-.42781.71829-1.09672-1.65744-3.51033-3.47245-6.89386-7.75382-8.59181z" class="cls-1"/></clipPath><clipPath id="clip-path-13"><path d="M133.73961 98.4709c-.72528.00091-1.45232.01058-2.17765.00263-.93829-.00967-1.13986.36-.72791 1.20417a20.45508 20.45508 0 0 0 5.15449 7.1737c.63465.51935 1.34939 1.4779 2.22434.9744.70679-.40841.25524-1.46468.308-2.23132.05281-.79222.01144-1.59141.01144-2.38626 0-4.6352 0-4.73732-4.48466-4.73732h-.3081" class="cls-1"/></clipPath><clipPath id="clip-path-14"><path d="M137.01666 58.18179a16.27733 16.27733 0 0 0-5.11758 5.85339c-1.84053 3.25417-1.82909 3.2612 1.90306 3.263.59236 0 1.109 0 1.56149-.008.45332-.00967.84148-.02815 1.17333-.06511a2.79752 2.79752 0 0 0 1.15394-.32745c.84147-.51666.84147-1.6988.84061-4.40106 0-1.16275-.04491-2.32641.01145-3.48561.04137-.86351-.16724-1.22529-.56512-1.22529a1.96567 1.96567 0 0 0-.96118.39611" class="cls-1"/></clipPath><clipPath id="clip-path-15"><path d="M154.11394 99.69177a38.209 38.209 0 0 1-4.438 8.02228c5.07879-2.03329 9.06968-4.66426 12.32825-9.178-2.50687 0-4.52431.01408-6.54089-.00618h-.01934c-.8107 0-1.06949.507-1.33 1.16189" class="cls-1"/></clipPath><clipPath id="clip-path-16"><path d="M125.27991 98.47885c-1.94615.01493-3.89408.0044-6.18352.0044 2.90383 4.34208 8.722 8.55216 11.838 8.67975a38.77546 38.77546 0 0 1-4.18714-7.66222 1.41859 1.41859 0 0 0-1.44883-1.02193h-.01848" class="cls-1"/></clipPath><clipPath id="clip-path-17"><path d="M118.98636 66.94433c2.36251 0 4.2479.01316 6.13334-.00795.09418-.00086.1954.00526.29753.01144.42071.02552.87312.05018 1.06239-.42426a91.01209 91.01209 0 0 1 4.18364-8.34881 24.01045 24.01045 0 0 0-11.6769 8.76958" class="cls-1"/></clipPath><clipPath id="clip-path-18"><path d="M150.32548 58.14128c1.08093 2.8607 3.09305 5.26721 4.03843 8.19656a.81595.81595 0 0 0 .83622.57743c.68654-.0194 1.37576.00085 2.07288.01934a20.55805 20.55805 0 0 0 4.53925-.22355q-.606-.75388-1.234-1.45587a24.69491 24.69491 0 0 0-10.2536-7.11831l.00086.0044" class="cls-1"/></clipPath><clipPath id="clip-path-19"><path d="M132.56364 156.57915c-10.19638-1.2341-19.64548-4.80335-28.77856-9.27217-17.37806-8.502-33.49654-19.10945-49.60266-29.72482-17.52857-11.55458-35.00963-23.4181-52.5021-35.02816C1.09761 82.16766.37056 81.92735 0 81.16066c8.58031-5.66589 18.06992-1.45481 26.66081-7.09614 19.95883-13.10634 48.79374 43.9389 51.871 44.129 1.48753.09154 40.49663 35.54273 65.54838 34.58064 2.88708-.11088 9.11082-6.57432 11.98828-6.96774 12.78861-2.87831 50.05694-29.60794 51.225-32.51613 1.18477-2.94874 67.33575-36.2042 73.27107-32.25468-1.00083.68482-1.8256 1.26928-2.67057 1.82554-18.81456 12.40578-37.586 25.3599-56.46131 37.675-14.53233 9.48163-29.12978 18.87968-44.78172 26.48473-7.47655 3.63352-15.10358 6.90794-23.34768 8.46239-1.3467.32476-2.76125.31423-4.08769.58355a48.13163 48.13163 0 0 1-9.64716.94978 58.2516 58.2516 0 0 1-7.00475-.43747" class="cls-1"/></clipPath><style>.cls-1{fill:#fff}</style></defs><path d="M304.81331 129.71976l4.0254-28.11084h.45605l11.42773 23.06592 11.31836-23.06592h.4502l4.04492 28.11084h-2.75391l-2.77832-20.104-9.93945 20.104h-.71777l-10.05762-20.25684-2.76172 20.25684zm48.73145-28.11084l13.10938 28.11084H363.62l-4.42188-9.249h-12.10941l-4.37989 9.249H339.575l13.28125-28.11084zm-.35449 5.97265l-4.81738 10.1753h9.61035zm17.97363-5.97265h5.59961a33.94714 33.94714 0 0 1 6.34473.38281 7.24457 7.24457 0 0 1 4.07031 2.4585 7.01857 7.01857 0 0 1 1.56641 4.64013 7.50317 7.50317 0 0 1-1.07911 4.0376 6.74316 6.74316 0 0 1-3.08691 2.63086 14.1753 14.1753 0 0 1-5.542.90869l10.10937 13.05225h-3.47558l-10.10938-13.05225h-1.58789v13.05225h-2.80956zm2.80957 2.752v9.55469l4.84277.03857a12.03044 12.03044 0 0 0 4.16211-.53515 4.33024 4.33024 0 0 0 2.10645-1.71 4.75612 4.75612 0 0 0 .75586-2.62793 4.56029 4.56029 0 0 0-.76563-2.57032 4.26931 4.26931 0 0 0-2.00976-1.65332 12.22525 12.22525 0 0 0-4.13477-.49658zm46.97266 2.4648l-2.2168 1.70117a12.12129 12.12129 0 0 0-4.40527-3.62159 12.8877 12.8877 0 0 0-5.64649-1.23242 12.47932 12.47932 0 0 0-6.23047 1.61475 11.59554 11.59554 0 0 0-4.44336 4.33789 12.00315 12.00315 0 0 0-1.57617 6.125 11.49605 11.49605 0 0 0 3.52539 8.58008 12.22055 12.22055 0 0 0 8.89649 3.43994 12.50973 12.50973 0 0 0 9.87988-4.62451l2.2168 1.68164a14.17516 14.17516 0 0 1-5.2461 4.13721 16.455 16.455 0 0 1-7.02246 1.46191q-7.377 0-11.63867-4.91113a14.82248 14.82248 0 0 1-3.57324-10.01368 13.92242 13.92242 0 0 1 4.32812-10.38623 14.92215 14.92215 0 0 1 10.84473-4.21386 15.91249 15.91249 0 0 1 7.10938 1.55761 13.80446 13.80446 0 0 1 5.19824 4.36622zm5.59863-5.2168h2.80957v11.791h14.31348v-11.791h2.80957v28.11084h-2.80957V116.1514h-14.31348v13.56836h-2.80957zm41.43066 0h5.52344v28.11084h-2.79v-25.35889h-4.415zm19.62598 6.5166h-2.86621a9.47531 9.47531 0 0 1 3-5.35107 7.86074 7.86074 0 0 1 5.23633-1.87256 8.65655 8.65655 0 0 1 4.09961 1.00341 7.42359 7.42359 0 0 1 2.94238 2.70362 6.71133 6.71133 0 0 1 1.042 3.55469 6.44378 6.44378 0 0 1-3.6123 5.75195 8.19455 8.19455 0 0 1 3.32519 2.4082 7.69064 7.69064 0 0 1 1.835 5.00684 8.9326 8.9326 0 0 1-1.26171 4.55762 8.748 8.748 0 0 1-3.43946 3.354 10.03563 10.03563 0 0 1-4.873 1.18457 8.94593 8.94593 0 0 1-6.05762-2.09229 10.24317 10.24317 0 0 1-3.17285-6.144h2.75195a7.97831 7.97831 0 0 0 2.083 3.95557 6.41841 6.41841 0 0 0 4.43359 1.54785 6.67624 6.67624 0 0 0 4.91113-1.83447 5.86027 5.86027 0 0 0 1.85352-4.29981 5.562 5.562 0 0 0-.92676-3.07666 5.84072 5.84072 0 0 0-2.48437-2.15918 13.78334 13.78334 0 0 0-4.8252-.89844v-2.57959a8.84712 8.84712 0 0 0 3.5166-.67871 5.11979 5.11979 0 0 0 2.30274-1.72949 3.98717 3.98717 0 0 0 .71679-2.293 4.1629 4.1629 0 0 0-1.46191-3.17236 5.26808 5.26808 0 0 0-3.69824-1.33789 4.966 4.966 0 0 0-3.13379 1.02246 7.72316 7.72316 0 0 0-2.23641 3.46874zm17.75391 9.86084h10.50976v2.331h-10.50976zm18.99511-16.37744h5.52247v28.11084h-2.79v-25.35889h-4.41407zm31.11524-.70703h.56933v19.60693h3.40137v2.67529H556.035v6.53565h-2.79v-6.53565h-13.45415zm-2.2207 19.60693V108.7012l-8.32911 11.80762zm12.87988 4.05127l2.58008 1.22314-3.87989 7.22364-1.8916-.80274zm20.5625-14.16064H583.993a9.65166 9.65166 0 0 1 2.78028-6.82764 8.93809 8.93809 0 0 1 6.584-2.66992 8.378 8.378 0 0 1 8.67572 8.41211 9.21687 9.21687 0 0 1-1.14355 4.48339 32.33322 32.33322 0 0 1-4.44043 5.66846l-7.00293 7.54h12.96875v2.71387h-19.09078l10.74023-11.60694a34.722 34.722 0 0 0 4.25195-5.19238 6.99748 6.99748 0 0 0 .9834-3.56738 5.4865 5.4865 0 0 0-1.76758-4.083 5.98653 5.98653 0 0 0-4.32812-1.71191 6.0623 6.0623 0 0 0-4.48145 1.79638 7.71893 7.71893 0 0 0-2.03515 5.04496zm18.40332 5.27441a24.37239 24.37239 0 0 1 1.19433-8.59961 9.97184 9.97184 0 0 1 3.37305-4.60547 8.14744 8.14744 0 0 1 4.873-1.56689 8.341 8.341 0 0 1 4.94922 1.57666 10.47347 10.47347 0 0 1 3.50683 4.72949 22.83325 22.83325 0 0 1 1.29 8.46582 22.899 22.899 0 0 1-1.27148 8.42773 10.42335 10.42335 0 0 1-3.50586 4.7295 8.36191 8.36191 0 0 1-4.96875 1.5957 8.13261 8.13261 0 0 1-4.85449-1.54785 10.02029 10.02029 0 0 1-3.37305-4.61524 24.14906 24.14906 0 0 1-1.2128-8.58984zm2.65625.04785a23.11707 23.11707 0 0 0 .85058 7.20068 7.646 7.646 0 0 0 2.5127 3.70069 5.5519 5.5519 0 0 0 7.01367.02881 7.543 7.543 0 0 0 2.46485-3.70117 21.9885 21.9885 0 0 0 1.05078-7.229 21.64058 21.64058 0 0 0-.93653-6.95215 8.1356 8.1356 0 0 0-2.58886-3.95849 5.52041 5.52041 0 0 0-7.00391 0 7.7057 7.7057 0 0 0-2.50391 3.69091 22.97566 22.97566 0 0 0-.85937 7.21972zm22.32031-5.32226h-2.69433a9.65165 9.65165 0 0 1 2.78027-6.82764 8.93809 8.93809 0 0 1 6.584-2.66992 8.378 8.378 0 0 1 8.67578 8.41211 9.21687 9.21687 0 0 1-1.14355 4.48339 32.33273 32.33273 0 0 1-4.44043 5.66846l-7.00293 7.54h12.96875v2.71387h-19.09084l10.74023-11.60694a34.72226 34.72226 0 0 0 4.252-5.19238 6.99757 6.99757 0 0 0 .9834-3.56738 5.48654 5.48654 0 0 0-1.76758-4.083 5.98655 5.98655 0 0 0-4.32813-1.71191 6.06228 6.06228 0 0 0-4.48144 1.79638 7.71889 7.71889 0 0 0-2.0352 5.04496zm22.33984-2.27393h-2.86621a9.46426 9.46426 0 0 1 3-5.35107 7.85714 7.85714 0 0 1 5.23633-1.87256 8.64981 8.64981 0 0 1 4.09863 1.00341 7.42632 7.42632 0 0 1 2.94336 2.70362 6.71015 6.71015 0 0 1 1.041 3.55469 6.44456 6.44456 0 0 1-3.61133 5.75195 8.2077 8.2077 0 0 1 3.3252 2.4082 7.6949 7.6949 0 0 1 1.834 5.00684 8.93148 8.93148 0 0 1-1.26074 4.55762 8.74407 8.74407 0 0 1-3.44043 3.354 10.03294 10.03294 0 0 1-4.87305 1.18457 8.94939 8.94939 0 0 1-6.05761-2.09229 10.23715 10.23715 0 0 1-3.17188-6.144h2.75195a7.963 7.963 0 0 0 2.083 3.95557 6.41674 6.41674 0 0 0 4.4336 1.54785 6.67781 6.67781 0 0 0 4.91113-1.83447 5.8603 5.8603 0 0 0 1.85351-4.29981 5.57 5.57 0 0 0-.92675-3.07666 5.84074 5.84074 0 0 0-2.48438-2.15918 13.78813 13.78813 0 0 0-4.82519-.89844v-2.57959a8.84572 8.84572 0 0 0 3.51562-.67871 5.1197 5.1197 0 0 0 2.30273-1.72949 3.98 3.98 0 0 0 .7168-2.293 4.1629 4.1629 0 0 0-1.46191-3.17236 5.2673 5.2673 0 0 0-3.69727-1.33789 4.96871 4.96871 0 0 0-3.13476 1.02246 7.71434 7.71434 0 0 0-2.23535 3.46874zm50.03028 1.47119a5.87237 5.87237 0 1 1-4.14746 1.72022 5.65065 5.65065 0 0 1 4.14746-1.72022zm34.05371 14.88672l2.38867-1.43311q2.52246 4.64356 5.8291 4.64356a5.58409 5.58409 0 0 0 2.65625-.65918 4.66319 4.66319 0 0 0 1.8916-1.76758 4.57949 4.57949 0 0 0 .64942-2.35058 4.76863 4.76863 0 0 0-.95508-2.771 22.89062 22.89062 0 0 0-4.81543-4.50977 24.605 24.605 0 0 1-4.37695-3.8413 7.02445 7.02445 0 0 1-1.49024-4.29981 6.52637 6.52637 0 0 1 .87891-3.34424 6.26939 6.26939 0 0 1 2.47461-2.3789 7.1326 7.1326 0 0 1 3.46875-.86963 7.39586 7.39586 0 0 1 3.7168.98388 12.75514 12.75514 0 0 1 3.66015 3.62159l-2.29394 1.73877a11.01021 11.01021 0 0 0-2.70411-2.77051 4.66052 4.66052 0 0 0-2.43652-.669 3.85818 3.85818 0 0 0-2.78027 1.03174 3.37853 3.37853 0 0 0-1.08008 2.5415 4.33055 4.33055 0 0 0 .38281 1.77735 6.56661 6.56661 0 0 0 1.39453 1.873q.55518.53468 3.63086 2.80909a20.43018 20.43018 0 0 1 5.00684 4.79638 7.727 7.727 0 0 1 1.35742 4.22364 7.16769 7.16769 0 0 1-2.32226 5.3125 7.802 7.802 0 0 1-5.64649 2.25488 8.28688 8.28688 0 0 1-4.64453-1.36621 12.496 12.496 0 0 1-3.84082-4.57706zm33.88184-22.87451l13.10937 28.11084h-3.03418l-4.4209-9.249h-12.11035l-4.37891 9.249h-3.13378l13.28125-28.11084zm-.3545 5.97265l-4.8164 10.1753h9.61035zm17.84082 22.13819v-28.11084h.61133l18.709 21.54834v-21.54834H809.95v28.11084h-.63086l-18.55566-21.28613v21.28613zm48.97852-28.11084h2.80957V120.585a18.62171 18.62171 0 0 1-.67871 6.08692 5.67294 5.67294 0 0 1-2.26465 2.73242 6.93976 6.93976 0 0 1-3.84082 1.02246 8.98211 8.98211 0 0 1-3.35352-.65918 14.22243 14.22243 0 0 1-3.66015-2.32178l1.49121-2.23584a21.9722 21.9722 0 0 0 3.65723 2.17823 4.64332 4.64332 0 0 0 1.876.42041 3.60724 3.60724 0 0 0 2.19238-.72608 3.78745 3.78745 0 0 0 1.37891-1.93017 17.88883 17.88883 0 0 0 .39258-4.6626zm23.03711-.70703a14.58574 14.58574 0 0 1 10.68945 4.26123 14.777 14.777 0 0 1-10.46 25.26367 14.38965 14.38965 0 0 1-10.55566-4.28076 14.07193 14.07193 0 0 1-4.30176-10.35742 14.979 14.979 0 0 1 1.96-7.51026 14.47375 14.47375 0 0 1 12.668-7.37646zm.125 2.73242a12.00352 12.00352 0 0 0-10.2793 6.00537 12.1834 12.1834 0 0 0-1.56933 6.13916 11.82285 11.82285 0 0 0 11.84863 11.915 12.02562 12.02562 0 0 0 6.05762-1.58691 11.36942 11.36942 0 0 0 4.34472-4.34131 12.20047 12.20047 0 0 0 1.56055-6.12061 11.89822 11.89822 0 0 0-1.56055-6.05273 11.64956 11.64956 0 0 0-4.39258-4.332 11.88565 11.88565 0 0 0-6.00976-1.62597zm17.60058 20.84912l2.38868-1.43311q2.52246 4.64356 5.82812 4.64356a5.58412 5.58412 0 0 0 2.65625-.65918 4.657 4.657 0 0 0 1.8916-1.76758 4.5711 4.5711 0 0 0 .65039-2.35058 4.76322 4.76322 0 0 0-.95605-2.771 22.89087 22.89087 0 0 0-4.81543-4.50977 24.62407 24.62407 0 0 1-4.376-3.8413 7.01952 7.01952 0 0 1-1.49121-4.29981 6.51765 6.51765 0 0 1 .87988-3.34424 6.263 6.263 0 0 1 2.47461-2.3789 7.1326 7.1326 0 0 1 3.46875-.86963 7.39848 7.39848 0 0 1 3.7168.98388 12.76594 12.76594 0 0 1 3.65918 3.62159l-2.293 1.73877a11.01021 11.01021 0 0 0-2.7041-2.77051 4.66057 4.66057 0 0 0-2.43652-.669 3.85662 3.85662 0 0 0-2.78028 1.03174 3.375 3.375 0 0 0-1.08008 2.5415 4.32946 4.32946 0 0 0 .38184 1.77735 6.55367 6.55367 0 0 0 1.39551 1.873q.55371.53468 3.63086 2.80909a20.44824 20.44824 0 0 1 5.00683 4.79638 7.73347 7.73347 0 0 1 1.35645 4.22364 7.1667 7.1667 0 0 1-2.32129 5.3125 7.80421 7.80421 0 0 1-5.64746 2.25488 8.28606 8.28606 0 0 1-4.64356-1.36621 12.49612 12.49612 0 0 1-3.84077-4.57706zm22.41504-22.87451h16.11035v2.752H902.825v8.80957h13.18555v2.75195H902.825v11.04536h13.18555v2.752h-15.99509zm23.18067 22.95117l2.58008 1.22314-3.87989 7.22364-1.8916-.80274zm45.63379-17.73437l-2.2168 1.70117a12.11332 12.11332 0 0 0-4.40527-3.62159 12.88464 12.88464 0 0 0-5.64649-1.23242 12.482 12.482 0 0 0-6.23047 1.61475 11.59287 11.59287 0 0 0-4.44238 4.33789 11.9941 11.9941 0 0 0-1.57715 6.125 11.49684 11.49684 0 0 0 3.52637 8.58008 12.21824 12.21824 0 0 0 8.89551 3.43994 12.50973 12.50973 0 0 0 9.87988-4.62451l2.2168 1.68164a14.1673 14.1673 0 0 1-5.2461 4.13721 16.455 16.455 0 0 1-7.02246 1.46191q-7.377 0-11.63867-4.91113a14.82248 14.82248 0 0 1-3.57324-10.01368 13.92606 13.92606 0 0 1 4.32812-10.38623 14.92284 14.92284 0 0 1 10.84571-4.21386 15.90817 15.90817 0 0 1 7.10839 1.55761 13.79694 13.79694 0 0 1 5.19825 4.36622zm17.12308-5.2168l13.10938 28.11084h-3.03418l-4.42188-9.249h-12.11039l-4.3789 9.249h-3.13379l13.28125-28.11084zm-.35547 5.97265l-4.8164 10.1753h9.61035z" class="cls-1"/><path d="M352.99593 44.6514l-6.66893 6.3584q-6.80567-7.19311-15.31348-7.19336a16.78235 16.78235 0 0 0-17.01465 17.01269 17.90015 17.90015 0 0 0 2.17774 8.89844 15.6102 15.6102 0 0 0 6.15918 6.10205 17.88305 17.88305 0 0 0 8.84863 2.21582 18.22973 18.22973 0 0 0 7.58789-1.55127 27.205 27.205 0 0 0 7.55469-5.6416l6.46484 6.74609a35.49684 35.49684 0 0 1-10.49023 7.51368 28.6373 28.6373 0 0 1-11.27344 2.09521q-11.68214 0-19.124-7.40771-7.44141-7.40772-7.44141-18.9878a25.9823 25.9823 0 0 1 3.38867-13.31689 25.19863 25.19863 0 0 1 9.707-9.36621 27.37326 27.37326 0 0 1 13.60645-3.542 28.878 28.878 0 0 1 21.83105 10.06446zm23.62891-8.80469h9.67187l19.26953 50.10059h-9.91113l-3.91992-10.31983h-20.44336l-4.07617 10.31983h-9.91113zm4.89551 13.2832l-6.72168 17.19971H388.202zm57.71289-6.47119l-7.06348 6.23291q-3.71924-5.17675-7.57422-5.17724a4.61179 4.61179 0 0 0-3.07129 1.00488 2.92549 2.92549 0 0 0-1.19336 2.26465 3.88021 3.88021 0 0 0 .85254 2.38428 64.67129 64.67129 0 0 0 6.99414 6.437q5.458 4.56445 6.61914 5.75586a19.97355 19.97355 0 0 1 4.11035 5.603 13.9857 13.9857 0 0 1 1.21192 5.84082 13.39184 13.39184 0 0 1-4.2627 10.1836 15.53747 15.53747 0 0 1-11.11425 4.019 16.53345 16.53345 0 0 1-9.3252-2.62256 20.71174 20.71174 0 0 1-6.80273-8.24219l8.0166-4.83642q3.61522 6.6416 8.32226 6.6416a6.12808 6.12808 0 0 0 4.12793-1.43066 4.25564 4.25564 0 0 0 1.67188-3.30371 5.70171 5.70171 0 0 0-1.2627-3.40577 36.41916 36.41916 0 0 0-5.56152-5.21093q-8.18848-6.6753-10.57617-10.30274a13.08255 13.08255 0 0 1-2.3877-7.23779 11.83267 11.83267 0 0 1 3.97266-8.94043 13.777 13.777 0 0 1 9.80273-3.729 15.46767 15.46767 0 0 1 7.14453 1.73681 26.02581 26.02581 0 0 1 7.34864 6.33503zm36.27246 0l-7.06348 6.23291q-3.71924-5.17675-7.57422-5.17724a4.61181 4.61181 0 0 0-3.07129 1.00488 2.92549 2.92549 0 0 0-1.19336 2.26465 3.88021 3.88021 0 0 0 .85254 2.38428 64.67235 64.67235 0 0 0 6.99414 6.437q5.458 4.56445 6.61914 5.75586a19.97381 19.97381 0 0 1 4.11036 5.603 13.98585 13.98585 0 0 1 1.21191 5.84082 13.39184 13.39184 0 0 1-4.2627 10.1836 15.53747 15.53747 0 0 1-11.11425 4.019 16.53345 16.53345 0 0 1-9.3252-2.62256 20.71182 20.71182 0 0 1-6.80273-8.24219l8.0166-4.83642q3.61522 6.6416 8.32226 6.6416a6.12808 6.12808 0 0 0 4.12793-1.43066 4.25564 4.25564 0 0 0 1.67188-3.30371 5.70171 5.70171 0 0 0-1.2627-3.40577 36.41916 36.41916 0 0 0-5.56152-5.21093q-8.18847-6.6753-10.57617-10.30274a13.08255 13.08255 0 0 1-2.3877-7.23779 11.8327 11.8327 0 0 1 3.97266-8.94031 13.777 13.777 0 0 1 9.80273-3.729 15.46767 15.46767 0 0 1 7.14453 1.73681 26.02581 26.02581 0 0 1 7.34864 6.33491zm25.26367-6.81201h9.6709L529.7098 85.9473h-9.91113l-3.91993-10.31983h-20.44335l-4.0752 10.31983h-9.91113zm4.89551 13.2832l-6.72266 17.19971h13.4043zm31.45312-13.2832h9.14746L567.703 68.816V35.84671h9.53614V85.9473h-9.17383l-21.41117-32.8667v32.8667H537.118zm51.59864 0h11.29785q10.92333 0 16.23242 2.708a21.14983 21.14983 0 0 1 8.74512 8.8042 28.498 28.498 0 0 1 3.4375 14.23633 28.66134 28.66134 0 0 1-1.92286 10.64355 22.09272 22.09272 0 0 1-5.30859 8.05469 18.74773 18.74773 0 0 1-7.334 4.42773q-3.94629 1.22608-13.67871 1.22608h-11.46873zm9.46875 9.1958v31.60694h4.42773q6.53905 0 9.48535-1.50049a11.36821 11.36821 0 0 0 4.81934-5.0459 18.52081 18.52081 0 0 0 1.873-8.72852q0-7.97754-4.46191-12.377-4.01953-3.95435-12.9082-3.95508zm39.98535-9.1958h10.10351q8.29981 0 11.82129 1.48193A12.11063 12.11063 0 0 1 665.7596 42.25a15.0704 15.0704 0 0 1 2.14356 8.14014 13.874 13.874 0 0 1-2.36621 8.25928 14.37208 14.37208 0 0 1-7.13477 5.02343l11.86817 22.27445h-10.42481l-11.26562-21.21875h-.87305V85.9473h-9.53613zm9.53613 19.584h2.98828q4.54835 0 6.26367-1.19581a4.48859 4.48859 0 0 0 1.71485-3.96435 4.85235 4.85235 0 0 0-.84867-2.85255 4.71377 4.71377 0 0 0-2.27539-1.74316 17.24905 17.24905 0 0 0-5.22851-.52979h-2.61426zm45.5625-19.584h9.67187l19.26954 50.10059h-9.91114l-3.91992-10.31983h-20.44336l-4.07617 10.31983h-9.91113zm4.89551 13.2832l-6.72168 17.19971h13.40332zm77.22851-6.47119l-7.06347 6.23291q-3.71925-5.17675-7.57422-5.17724a4.61177 4.61177 0 0 0-3.07129 1.00488 2.92549 2.92549 0 0 0-1.19336 2.26465 3.88021 3.88021 0 0 0 .85254 2.38428 64.67129 64.67129 0 0 0 6.99414 6.437q5.458 4.56445 6.61914 5.75586a19.97375 19.97375 0 0 1 4.11035 5.603 13.9857 13.9857 0 0 1 1.21192 5.84082 13.39184 13.39184 0 0 1-4.2627 10.1836 15.5375 15.5375 0 0 1-11.11426 4.019A16.53344 16.53344 0 0 1 751.577 84.585a20.71184 20.71184 0 0 1-6.80274-8.24219l8.0166-4.83642q3.61524 6.6416 8.32227 6.6416a6.12812 6.12812 0 0 0 4.12793-1.43066 4.25563 4.25563 0 0 0 1.67187-3.30371 5.7017 5.7017 0 0 0-1.26269-3.40577 36.41966 36.41966 0 0 0-5.56152-5.21093q-8.18848-6.6753-10.57618-10.30274a13.08261 13.08261 0 0 1-2.38769-7.23779 11.83269 11.83269 0 0 1 3.97265-8.94043 13.777 13.777 0 0 1 9.80274-3.729 15.4677 15.4677 0 0 1 7.14453 1.73681 26.02566 26.02566 0 0 1 7.34862 6.33495zm9.63867-6.81201h9.57032v32.39795a16.76774 16.76774 0 0 0 .73242 5.92139 5.89087 5.89087 0 0 0 2.418 2.77392 7.61639 7.61639 0 0 0 4.07031 1.0376 7.92784 7.92784 0 0 0 4.3418-1.15674 6.09728 6.09728 0 0 0 2.52051-2.94385q.69726-1.78637.69824-6.82324v-31.207h9.57031v29.8696q0 7.5608-.85156 10.49023a14.86388 14.86388 0 0 1-3.252 5.65381 15.08987 15.08987 0 0 1-5.53515 4.03565 18.77164 18.77164 0 0 1-7.28809 1.31152 17.62608 17.62608 0 0 1-9.48535-2.50342 14.56925 14.56925 0 0 1-5.77344-6.2666q-1.73583-3.76318-1.73633-12.72119zm49.85059 0h9.292l11.61425 34.94434 11.71875-34.94434h9.28613l8.4043 50.10059h-9.22168l-5.37207-31.64063-10.64355 31.64063h-8.4043l-10.54883-31.64063-5.501 31.64063h-9.29785zm62.77051 0h9.291l11.61426 34.94434 11.71973-34.94434h9.28515l8.40528 50.10059h-9.22266l-5.37207-31.64063-10.64354 31.64063H914.326l-10.54882-31.64063-5.5 31.64063h-9.29883zm57.22949 0h9.46777V85.9473h-9.46777zm15.25781 0h27.68946v9.40039h-9.127v40.7002h-9.67285V45.2471h-8.88965z" class="cls-1"/><path d="M132.56364 5.97719c-10.19638 1.2341-19.64548 4.80335-28.77856 9.27217C86.407 23.75134 70.28854 34.35881 54.18242 44.97418Q27.88956 62.30605 1.68032 79.76727C1.09761 80.15366.37056 80.394 0 81.16066q12.87047 8.49884 25.73391 16.98988c19.95883 13.10634 39.65009 26.62818 60.25766 38.72762 12.14253 7.12971 24.50955 13.80437 38.25318 17.46077 2.22783.59327 4.47591 1.12052 6.71426 1.67769h19.28992c.21914-.35823.59058-.37322.94887-.43043a86.00708 86.00708 0 0 0 14.27543-3.92872c-.04137-3.8439-.74043-7.50439-.78088-11.35-.21479.0845-.43221.16192-.647.2438-1.7261.654-3.46536 1.26133-5.22315 1.7983-.794.242-1.59319.46562-2.39507.68041-1.19445.31864-2.39593.61-3.60891.859q-2.02794.41727-4.09119.69008c-.9269.12147-1.16806.63378-1.45941 1.31946a6.92957 6.92957 0 0 1-6.79527 4.5718 7.07019 7.07019 0 0 1-6.71163-4.431 2.3182 2.3182 0 0 0-2.05263-1.51131c-21.47457-3.47948-37.49885-14.70661-47.41973-34.02462-7.01178-13.65126-8.3955-28.1325-4.68011-43.04423a2.61131 2.61131 0 0 0-.6452-2.873 6.82591 6.82591 0 0 1-1.52893-7.66667 7.11916 7.11916 0 0 1 6.48988-4.76365 3.2484 3.2484 0 0 0 2.829-1.85284c13.65827-20.81444 32.87686-31.09973 57.92862-30.13764 2.88707.11089 5.7548.74907 8.63225 1.14249a63.18921 63.18921 0 0 1 32.84249 18.4176 56.81414 56.81414 0 0 1 8.02582 10.5934 3.11606 3.11606 0 0 0 2.81841 1.86164 7.17415 7.17415 0 0 1 6.49689 4.76456 6.8357 6.8357 0 0 1-1.6469 7.8163 2.26668 2.26668 0 0 0-.57748 2.50865c4.52431 18.42287 1.3626 35.50429-9.44381 51.05324a61.28053 61.28053 0 0 1-25.40644 21.07318c-.59328.26845-1.154.60648-1.72964.911q.05938 5.76841.12147 11.53432c.419-.12325.84765-.22183 1.25606-.37322 11.522-4.28578 22.11622-10.39006 32.56263-16.7355 21.95076-13.33434 43.07674-27.9327 64.48794-42.09182 5.76453-3.81219 11.50789-7.65609 17.44321-11.60561-1.00083-.68482-1.8256-1.26928-2.67057-1.82554-18.81456-12.40577-37.586-24.87484-56.46131-37.18993-14.53233-9.48163-29.12978-18.87968-44.78172-26.48473-7.47655-3.63352-15.10358-6.90794-23.34768-8.46239-1.3467-.32476-2.76125-.31423-4.08769-.58355a48.13163 48.13163 0 0 0-9.64716-.94978 58.2516 58.2516 0 0 0-7.00475.43747" class="cls-1"/><g clip-path="url(#clip-path)"><path d="M-8.39492 155.54766L.87566-10.11314 288.95992 6.0084l-9.27058 165.6608z" class="cls-1"/></g><path d="M173.94248 49.421zM140.328 35.00312c1.16275 2.26479 1.48139 4.58857 2.20666 6.77766a1.23466 1.23466 0 0 0 .52639-.61267 1.23561 1.23561 0 0 1-.52639.61353c.79571 2.91791 1.595 5.84285 2.43466 8.92011a4755.45582 4755.45582 0 0 0 1.04923 3.84389c4.42218-5.46437 8.5592-10.57669 13.03682-16.1088-.815 7.01-1.56234 13.45581-2.34661 20.207 6.07344-2.99092 11.39346-6.58661 17.20994-9.25014.07747-.081.154-.162.23058-.24294.12147.235.05985.33008-.206.27023a9.02759 9.02759 0 0 1-1.3872 3.3642c-.21125.34587-.43039.6874-.647 1.03069-.28871.45773-.57038.91809-.82036 1.39339-1.68822 3.21543-3.56045 6.33577-5.32706 9.51161-.26845.48319-.85028 1.0351-.47089 1.5747.36441.51667 1.09323.21125 1.64509.14871 5.85258-.66188 11.70247-1.352 18.14387-2.10367-5.51632 4.35175-10.61715 8.37433-16.11144 12.7076 6.7178 1.98048 12.95849 3.821 19.796 5.83759-6.84014 1.9259-13.12573 3.69428-19.80126 5.57354 5.276 4.15721 10.317 8.12962 15.35974 12.102q-.07922.239-.15849.47621c-6.37182-.73059-12.7437-1.4629-19.39462-2.22605 3.14941 5.776 6.18879 11.35472 9.22908 16.93352.08451.1074.26314.26583.2359.31424-.162.30106-.34152.1162-.51054-.01934l-.00091.00085q-7.27755-3.961-14.55516-7.9166a4.96187 4.96187 0 0 0-2.41447-.97793c.75085 6.5743 1.49374 13.08087 2.29385 20.08121-3.85093-4.65282-7.3929-8.93242-10.93486-13.212-.31778-.33711-.63556-.67423-.98761-1.04745-.35119-.37408-.73763-.78426-1.19273-1.26751-1.81232 6.32519-3.534 12.33352-5.2557 18.341l-.44806.037c-1.756-6.10777-3.51291-12.2156-5.37723-18.70191-3.31311 4.09742-6.40793 7.96066-9.54767 11.78785a18.09193 18.09193 0 0 1-3.08955 3.54728c.00177.01848.00091.03783.00177.05631-.02375.01144-.04755.022-.07129.03255a.46584.46584 0 0 1-.05985.08892c-.01762.0167-.07484-.00527-.11357-.01059a26.25378 26.25378 0 0 0 .17342-.07833c.01407-.02374.03078-.04486.04577-.06774.00881-.00618.01494-.015.02375-.02112a25.524 25.524 0 0 1 .12147-4.28051q.08058-.80013.18486-1.59667c.25879-1.96469.59059-3.92228.74375-5.89658.19631-2.51563.55105-5.01986.85733-7.72739a8.36438 8.36438 0 0 0-3.23477 1.47966c-4.05955 2.2498-8.07684 4.57358-12.13549 6.82338-.57832.32127-1.09675.96472-1.90656.70507l-.00086-.00091-.00881.01676-.03344-.02643a.23867.23867 0 0 0 .04225.00967c2.27975-4.26547 4.55861-8.53276 6.9-12.91535q1.17245-2.19573 2.36692-4.43277a81854.16564 81854.16564 0 0 1-19.51789 2.21639q-.07523-.21388-.15139-.42775c5.0533-3.98385 10.10749-7.9677 15.47943-12.20329-6.82165-1.89248-13.271-3.682-20.03278-5.55769 6.77677-1.98049 13.17946-3.85271 20.01519-5.85076-5.44676-4.29367-10.59426-8.35322-16.15193-12.73494a414121.3173 414121.3173 0 0 1 20.45881 2.34134c-3.37034-6.07258-6.52149-11.75169-9.99394-18.00827 6.2143 3.454 11.91017 6.621 17.94052 9.97369-.78254-6.8058-1.51926-13.21991-2.33522-20.30476 4.5111 5.563 8.66128 10.6814 13.03242 16.07271 1.87222-6.628 3.645-12.90745 5.47409-19.38318M113.55809 30.176q-1.86165.95068-3.64673 2.043a63.43759 63.43759 0 0 0-19.3691 19.08742 3.21291 3.21291 0 0 0-.029 4.292A7.31049 7.31049 0 0 1 84.98989 66.888a1.76364 1.76364 0 0 0-1.83527 1.65658c-4.32623 19.597-.514 37.30168 12.62492 52.67286a57.40275 57.40275 0 0 0 35.86252 19.78632c1.06685.16633 1.68473.07215 2.19172-1.073a6.75627 6.75627 0 0 1 5.401-3.9724c3.41517-.55186 5.8543 1.13287 7.91219 3.59923.13206 1.425.88639 1.822 2.24282 1.46291 1.12315-.29667 2.285-.44806 3.4293-.669 32.082-6.19228 53.36031-40.13245 44.98947-71.70748-.29838-1.12664-.65752-1.64776-1.95055-1.79738a7.36094 7.36094 0 0 1-5.19678-11.80719 2.38975 2.38975 0 0 0 .03783-3.23569 59.78449 59.78449 0 0 0-13.78326-15.3773q-1.855-1.43652-3.76643-2.71988-1.91182-1.28334-3.88263-2.41-.9863-.56249-1.9866-1.08533-1.37584-.71817-2.78151-1.35814A53.98421 53.98421 0 0 0 143.297 23.974q-1.09589-.0303-2.17765-.03078a59.74708 59.74708 0 0 0-27.56126 6.23278" class="cls-1"/><g clip-path="url(#clip-path-2)"><path d="M72.27591 141.01208l6.9512-124.1756 133.50598 7.4735-6.9512 124.1756z" class="cls-1"/></g><path d="M147.03349 70.7662c-4.67656.01053-4.67656.01053-4.6757 4.6.00086 5.39039.00086 5.39039 5.41774 5.401 5.75658.01231 5.75658.01231 4.80244-5.31561-.80189-4.47853-.83885-4.68628-4.92042-4.68628q-.297 0-.62406.00091" class="cls-1"/><g clip-path="url(#clip-path-3)"><path d="M138.4764 78.93647l5.9382-12.50133 12.99904 6.17462-5.9382 12.50133z" class="cls-1"/></g><path d="M142.768 85.12425c-1.20943 1.05272-.25438 3.40991-.40841 5.19323-.01235.14435-.00177.29048-.00177.4357 0 4.06132 0 4.06132 4.086 4.06749 5.26365.0079 5.26365.0079 6.20286-5.158.889-4.88964.889-4.88964-3.95129-4.88169-.29135.00086-.58183.00086-.87318.00086-.00091-.02551-.00263-.051-.00354-.07655a16.46738 16.46738 0 0 1-1.69967-.04229c-.44188-.02638-.88376-.05281-1.3027-.05281a3.12513 3.12513 0 0 0-2.04828.51408" class="cls-1"/><g clip-path="url(#clip-path-4)"><path d="M137.59792 92.9474l6.16519-12.97916 13.7325 6.52302-6.16519 12.97917z" class="cls-1"/></g><path d="M129.49788 71.13851c-1.4946 1.27105-1.1029 4.071-1.48315 6.20726-.61439 3.45574-.5669 3.46364 3.02353 3.46541q1.09581.00129 2.19172.00086c2.53679.00178 3.8606.00269 4.54983-.58532a1.3806 1.3806 0 0 0 .25879-.28957 1.86726 1.86726 0 0 0 .21387-.43221 4.262 4.262 0 0 0 .19717-.95414c.04051-.37762.06162-.81859.0722-1.33176.01053-.514.01053-1.10113.01053-1.77187a13.6537 13.6537 0 0 1 .01408-1.96377c.30811-2.10281-.31772-3.108-2.67234-2.785a11.11478 11.11478 0 0 1-2.54818-.06511c-.57834-.05808-1.15044-.11707-1.68913-.11707a3.1757 3.1757 0 0 0-2.13892.62229" class="cls-1"/><g clip-path="url(#clip-path-5)"><path d="M123.3538 78.89266l6.15445-12.95658 13.39105 6.36083-6.15445 12.95658z" class="cls-1"/></g><path d="M133.35763 84.75012h-.21834c-5.58847.00354-5.58847.00354-4.8077 5.44589.6672 4.65459.6672 4.65459 5.34639 4.65636 4.85439.00349 4.85439.00349 4.85439-4.87813-.00086-5.10088-.00086-5.22412-4.81033-5.22412h-.36441" class="cls-1"/><g clip-path="url(#clip-path-6)"><path d="M123.63435 92.99532l5.9382-12.50133 12.8762 6.11626-5.93821 12.50134z" class="cls-1"/></g><path d="M163.14843 70.72569c-2.04211.0361-4.08593.05281-6.12894.00881-1.00077-.022-1.27278.35737-1.07647 1.2983.29747 1.42067.48234 2.86423.7913 4.28137.316 1.45146-.58709 3.49533.70594 4.25058 1.139.66543 2.97775.139 4.50668.139.00086.03084.00086.06253.00086.09332 1.16716 0 2.3414-.07484 3.5006.02111 1.323.10826 1.65749-.44451 1.47263-1.6504a26.92467 26.92467 0 0 0-2.24894-7.48359 1.46833 1.46833 0 0 0-1.47526-.9594l-.0484.00086" class="cls-1"/><g clip-path="url(#clip-path-7)"><path d="M151.67074 79.2938l6.16733-12.98369 13.34409 6.33853-6.16733 12.98368z" class="cls-1"/></g><path d="M164.99863 84.72814a21.544 21.544 0 0 1-3.05432.02466v.0132c-1.23758 0-2.47694.02643-3.71275-.00967-.85115-.02552-1.30888.17691-1.39951 1.16629-.23768 2.5975-.59419 5.1827-.91987 7.77139-.07747.62142-.11443 1.00872.75262 1.1628 6.6218 1.17419 8.24583.14081 9.817-6.393.11884-.49292.23591-.98761.34507-1.4823.294-1.33531.19626-2.30175-1.22-2.30175a4.29708 4.29708 0 0 0-.60826.0484" class="cls-1"/><g clip-path="url(#clip-path-8)"><path d="M151.39876 93.94207l6.48397-13.6503 13.63765 6.47797-6.48397 13.6503z" class="cls-1"/></g><path d="M121.40431 70.74245c-5.19328.00172-5.19328.00172-6.599 4.93267-1.46027 5.12725-1.46027 5.12725 3.75235 5.12989h.21828c.35914.00091.71829-.007 1.07829-.01408a22.92367 22.92367 0 0 1 2.41086.0361c1.33972.11357 1.75431-.38815 1.76134-1.712a30.04956 30.04956 0 0 1 .48411-4.747c.59591-3.57366.63727-3.62556-2.92758-3.62556h-.17869" class="cls-1"/><g clip-path="url(#clip-path-9)"><path d="M109.39206 79.06256l6.12528-12.89515 13.58255 6.45179-6.12528 12.89516z" class="cls-1"/></g><path d="M118.9811 84.75807c-5.77949.0044-5.77949.0044-4.086 5.58847.02114.06866.05636.13469.07747.20335 1.35551 4.29453 1.35551 4.32623 5.835 4.27868a11.08521 11.08521 0 0 1 1.33966.10562c1.12052.13383 2.2498.26674 2.80348-.448.57124-.73672-.30806-2.58343-.52462-3.93808-.06866-.43043-.06688-.87054-.12587-1.30269-.602-4.37469-.62051-4.48821-4.96173-4.48821-.11621 0-.23505.00086-.35737.00086" class="cls-1"/><g clip-path="url(#clip-path-10)"><path d="M109.15314 93.27885l6.31578-13.2962 14.10013 6.69764-6.31578 13.29621z" class="cls-1"/></g><g><path d="M142.34017 99.93557c.05458 2.67589.01848 5.35257.01848 8.01787.228.03874.39347.12325.49909.0757 3.78491-1.71288 5.58671-5.11581 7.2644-8.59.43129-.89165-.39079-.88639-.96913-.889-.66628-.00263-1.33439.00263-2.00159.0079-1.14953.00881-2.3.01848-3.44779-.01757-.0396-.00177-.07833-.00177-.11621-.00177-.962 0-1.26659.41195-1.24725 1.39687" class="cls-1"/><g clip-path="url(#clip-path-11)"><path d="M138.6235 106.32096l5.21224-10.973 10.41386 4.94665-5.21224 10.973z" class="cls-1"/></g></g><g><path d="M142.35779 60.73792c0 6.54439 0 6.54439 6.59719 6.18438.14613-.008.29312-.00967.43834-.0044.85206.03169 1.03515-.42781.71829-1.09672-1.65744-3.51033-3.47245-6.89386-7.75382-8.59181z" class="cls-1"/><g clip-path="url(#clip-path-12)"><path d="M138.46112 65.43193l5.38172-11.32978 10.4807 4.9784-5.38171 11.32978z" class="cls-1"/></g></g><g><path d="M133.73961 98.4709c-.72528.00091-1.45232.01058-2.17765.00263-.93829-.00967-1.13986.36-.72791 1.20417a20.45508 20.45508 0 0 0 5.15449 7.1737c.63465.51935 1.34939 1.4779 2.22434.9744.70679-.40841.25524-1.46468.308-2.23132.05281-.79222.01144-1.59141.01144-2.38626 0-4.6352 0-4.73732-4.48466-4.73732h-.3081" class="cls-1"/><g clip-path="url(#clip-path-13)"><path d="M126.59735 106.5127l5.38772-11.34243 10.7562 5.10927-5.38772 11.34242z" class="cls-1"/></g></g><g><path d="M137.01666 58.18179a16.27733 16.27733 0 0 0-5.11758 5.85339c-1.84053 3.25417-1.82909 3.2612 1.90306 3.263.59236 0 1.109 0 1.56149-.008.45332-.00967.84148-.02815 1.17333-.06511a2.79752 2.79752 0 0 0 1.15394-.32745c.84147-.51666.84147-1.6988.84061-4.40106 0-1.16275-.04491-2.32641.01145-3.48561.04137-.86351-.16724-1.22529-.56512-1.22529a1.96567 1.96567 0 0 0-.96118.39611" class="cls-1"/><g clip-path="url(#clip-path-14)"><path d="M126.37186 65.5471l5.2558-11.06521 10.64339 5.05544-5.25581 11.06521z" class="cls-1"/></g></g><g><path d="M154.11394 99.69177a38.209 38.209 0 0 1-4.438 8.02228c5.07879-2.03329 9.06968-4.66426 12.32825-9.178-2.50687 0-4.52431.01408-6.54089-.00618h-.01934c-.8107 0-1.06949.507-1.33 1.16189" class="cls-1"/><g clip-path="url(#clip-path-15)"><path d="M146.1165 106.02369l5.8288-12.271 13.61777 6.46853-5.8288 12.271z" class="cls-1"/></g></g><g><path d="M125.27991 98.47885c-1.94615.01493-3.89408.0044-6.18352.0044 2.90383 4.34208 8.722 8.55216 11.838 8.67975a38.77546 38.77546 0 0 1-4.18714-7.66222 1.41859 1.41859 0 0 0-1.44883-1.02193h-.01848" class="cls-1"/><g clip-path="url(#clip-path-16)"><path d="M115.73112 105.56296l5.54476-11.67303 13.02433 6.18664-5.54476 11.67302z" class="cls-1"/></g></g><g><path d="M118.98636 66.94433c2.36251 0 4.2479.01316 6.13334-.00795.09418-.00086.1954.00526.29753.01144.42071.02552.87312.05018 1.06239-.42426a91.01209 91.01209 0 0 1 4.18364-8.34881 24.01045 24.01045 0 0 0-11.6769 8.76958" class="cls-1"/><g clip-path="url(#clip-path-17)"><path d="M115.56752 65.3736l5.56922-11.72451 12.94664 6.14973-5.56921 11.72452z" class="cls-1"/></g></g><g><path d="M150.32548 58.14128c1.08093 2.8607 3.09305 5.26721 4.03843 8.19656a.81595.81595 0 0 0 .83622.57743c.68654-.0194 1.37576.00085 2.07288.01934a20.55805 20.55805 0 0 0 4.53925-.22355q-.606-.75388-1.234-1.45587a24.69491 24.69491 0 0 0-10.2536-7.11831l.00086.0044" class="cls-1"/><g clip-path="url(#clip-path-18)"><path d="M146.88333 65.38047l5.55548-11.6956 12.81386 6.08666-5.55548 11.6956z" class="cls-1"/></g></g><g><path d="M150.32414 58.13688c-.007-.01848-.01585-.03611-.02289-.05459l-.02729.03433c.01762.00618.03347.01408.05018.02026" class="cls-1"/><path d="M150.30136 58.08224l-.103-.02375c.02466.02112.05018.0396.07484.05985l.02815-.0361m-.10282-.02353a.34105.34105 0 0 0-.05367-.04223c-.02025-.01236-.05813.00527-.088.00967.04669.01053.09332.02112.13995.03256h.00177" class="cls-1"/></g><g><path d="M132.56364 156.57915c-10.19638-1.2341-19.64548-4.80335-28.77856-9.27217-17.37806-8.502-33.49654-19.10945-49.60266-29.72482-17.52857-11.55458-35.00963-23.4181-52.5021-35.02816C1.09761 82.16766.37056 81.92735 0 81.16066c8.58031-5.66589 18.06992-1.45481 26.66081-7.09614 19.95883-13.10634 48.79374 43.9389 51.871 44.129 1.48753.09154 40.49663 35.54273 65.54838 34.58064 2.88708-.11088 9.11082-6.57432 11.98828-6.96774 12.78861-2.87831 50.05694-29.60794 51.225-32.51613 1.18477-2.94874 67.33575-36.2042 73.27107-32.25468-1.00083.68482-1.8256 1.26928-2.67057 1.82554-18.81456 12.40578-37.586 25.3599-56.46131 37.675-14.53233 9.48163-29.12978 18.87968-44.78172 26.48473-7.47655 3.63352-15.10358 6.90794-23.34768 8.46239-1.3467.32476-2.76125.31423-4.08769.58355a48.13163 48.13163 0 0 1-9.64716.94978 58.2516 58.2516 0 0 1-7.00475-.43747" class="cls-1"/><g clip-path="url(#clip-path-19)"><path d="M-8.4671 6.77851L279.61696-9.59522l9.41514 165.65265L.94804 172.43116z" class="cls-1"/></g><g><path d="M150.32414 104.41946c-.007.01848-.01585.03611-.02289.05459l-.02729-.03433c.01762-.00618.03347-.01408.05018-.02026" class="cls-1"/><path d="M150.30136 104.4741l-.103.02375c.02466-.02112.05018-.0396.07484-.05985l.02815.0361m-.10282.02353a.34105.34105 0 0 1-.05367.04223c-.02025.01236-.05813-.00527-.088-.00967.04669-.01053.09332-.02111.13995-.03256h.00177" class="cls-1"/></g></g></svg>